<svg version="1.2" xmlns="http://www.w3.org/2000/svg" viewBox="0 0 132 132" width="132" height="132"><style>.a{opacity:.1;fill:#fff}</style><path fill-rule="evenodd" class="a" d="m89.3 98.3c-1.3 1.2-2.9 2-4.7 2.3q-0.1 0.1-0.3 0.2l-80.9 30.6q-0.7 0.2-1.3 0.1c-1.2-0.3-1.9-1.5-1.6-2.7l4.2-17.4c0.3-1.2 1.5-1.9 2.7-1.7 1.2 0.3 1.9 1.5 1.6 2.7l-3.3 13.4 18.3-6.9c-6.7-5.9-10.8-14.1-11.6-23l-1-12.3q0 0 0 0c-0.1-1.2 0.8-2.2 2-2.3q0 0 0 0c1.2-0.1 2.2 0.8 2.3 2l1 12.3c0.7 8.3 4.8 15.9 11.3 21.1q0.3 0.2 0.5 0.5l25.5-9.6c-17.9-8.3-31.1-24.2-36.2-43.3q-0.8-3.2-1.3-6.5c-0.2-1.2 0.6-2.3 1.8-2.5 1.2-0.2 2.3 0.7 2.5 1.8 3.5 22 18.4 40.4 39.1 48.2l15.6-5.9q-2.7-0.8-5.3-2.1c-9.4-4.8-18-11.2-25.4-18.9-15.6-15.6-27.8-36.4-19.8-44.4 2.3-2.1 5.4-3 8.4-2.5 1.2 0.2 2 1.2 1.9 2.4 0 1.2-1.1 2.1-2.3 2-1.7-0.4-3.5 0.1-4.9 1.2-4.4 4.3 2.7 21.1 19.8 38.2 7 7.3 15.2 13.4 24.2 18.1 6.7 3.2 12 3.9 14.1 1.8 1.7-1.8 1.6-5.8-0.4-11q0 0 0 0c-0.4-1.2 0.1-2.4 1.3-2.8 1.1-0.5 2.4 0.1 2.8 1.3 3.4 8.9 1.5 13.4-0.6 15.6zm22.6-19.2c0 1.2-0.9 2.2-2.2 2.2q-0.4 0-0.7-0.2c-11.1-4.1-23.1-5.3-34.8-3.3l-7.8 1.3c-1.2 0.1-2.3-0.6-2.5-1.8-0.2-1.2 0.6-2.3 1.8-2.6l7.8-1.3c12.4-2 25.2-0.8 37 3.6 0.9 0.4 1.4 1.2 1.4 2.1zm5.3-33l-45.9 21.8q0 0 0 0c-1.1 0.6-2.4 0.1-2.9-1q0 0 0 0c-0.5-1.1 0-2.4 1.1-2.9l45.9-21.9c1.1-0.5 2.4 0 2.9 1.1 0.5 1.1 0 2.4-1.1 2.9zm-67.2 8.7l-3.2 7.6c-0.3 0.9-1.1 1.4-2 1.4q-0.4 0-0.8-0.2c-1.1-0.5-1.7-1.7-1.2-2.8l3.2-7.7c4.9-11.6 6-24.6 3.2-36.9q0-0.1 0-0.1c-0.2-1.2 0.6-2.3 1.7-2.6 1.2-0.2 2.4 0.5 2.6 1.7 3 13.3 1.8 27.1-3.5 39.6zm77.2 30.8c0 3.7-2.9 6.6-6.5 6.6-3.6 0-6.6-2.9-6.6-6.6 0-3.6 3-6.5 6.6-6.5 3.6 0 6.5 2.9 6.5 6.5zm-4.3 0c0-1.2-1-2.1-2.2-2.1-1.2 0-2.2 0.9-2.2 2.1 0 1.2 1 2.2 2.2 2.2 1.2 0 2.2-1 2.2-2.2zm-48.1-61.2c0 3.7-3 6.6-6.6 6.6-3.6 0-6.6-2.9-6.6-6.6 0-3.6 3-6.5 6.6-6.5 3.6 0 6.6 2.9 6.6 6.5zm-4.4 0c0-1.2-1-2.2-2.2-2.2-1.2 0-2.2 1-2.2 2.2 0 1.2 1 2.2 2.2 2.2 1.2 0 2.2-1 2.2-2.2zm-21.9-24c2.4 0 4.4 1.9 4.4 4.4 0 2.4-2 4.3-4.4 4.3-2.4 0-4.4-1.9-4.4-4.3 0-2.5 2-4.4 4.4-4.4zm63.4 13.1v2.2c0 1.2-0.9 2.2-2.2 2.2-1.2 0-2.1-1-2.1-2.2v-2.2c0-1.2 0.9-2.2 2.1-2.2 1.3 0 2.2 1 2.2 2.2zm0-10.9v2.2c0 1.2-0.9 2.1-2.2 2.1-1.2 0-2.1-0.9-2.1-2.1v-2.2c0-1.2 0.9-2.2 2.1-2.2 1.3 0 2.2 1 2.2 2.2zm6.6 6.5c0 1.2-1 2.2-2.2 2.2h-2.2c-1.2 0-2.2-1-2.2-2.2 0-1.2 1-2.2 2.2-2.2h2.2c1.2 0 2.2 1 2.2 2.2zm-10.9 0c0 1.2-1 2.2-2.2 2.2h-2.2c-1.2 0-2.2-1-2.2-2.2 0-1.2 1-2.2 2.2-2.2h2.2c1.2 0 2.2 1 2.2 2.2zm-11 17.5v11c0 1.2-1 2.1-2.2 2.1h-10.9c-1.2 0-2.2-0.9-2.2-2.1v-11c0-1.2 1-2.2 2.2-2.2h10.9c1.2 0 2.2 1 2.2 2.2zm-4.3 2.2h-6.7v6.6h6.7zm-13.9 16.9l-21.9 19.7c-0.9 0.8-2.2 0.7-3-0.2-0.9-0.9-0.8-2.2 0.1-3l21.9-19.7c0.9-0.8 2.2-0.7 3 0.1 0.8 0.9 0.8 2.3-0.1 3.1zm42.3 7.2v2.1c0 1.2-1 2.2-2.2 2.2-1.2 0-2.2-1-2.2-2.2v-2.1c0-1.3 1-2.2 2.2-2.2 1.2 0 2.2 0.9 2.2 2.2zm7.1 0.4c-0.9 0.9-2.3 0.9-3.1 0.1l-1.6-1.6c-0.8-0.8-0.8-2.2 0-3 0.9-0.9 2.3-0.9 3.1-0.1l1.6 1.6c0.8 0.8 0.8 2.2 0 3zm3.8-9.2c0 1.2-1 2.2-2.2 2.2h-2.2c-1.2 0-2.2-1-2.2-2.2 0-1.2 1-2.2 2.2-2.2h2.2c1.2 0 2.2 1 2.2 2.2zm-3.8-6.2l-1.6 1.6c-0.4 0.4-0.9 0.6-1.5 0.6-0.6 0-1.2-0.2-1.6-0.6-0.8-0.9-0.8-2.3 0-3.1l1.6-1.6c0.8-0.8 2.2-0.8 3 0 0.9 0.9 0.9 2.3 0.1 3.1zm-7.1-4.7v2.2c0 1.2-1 2.2-2.2 2.2-1.2 0-2.2-1-2.2-2.2v-2.2c0-1.2 1-2.2 2.2-2.2 1.2 0 2.2 1 2.2 2.2zm-6.9 6.2c-0.8 0.9-2.2 0.9-3 0.1l-1.6-1.6c-0.8-0.8-0.8-2.2 0-3 0.9-0.9 2.2-0.9 3.1-0.1l1.5 1.6c0.9 0.8 0.9 2.2 0 3zm-87.8-27.3l-4.6 4.5 1.1 6.4c0 0.5 0 1-0.3 1.4-0.5 1.1-1.9 1.5-2.9 0.9l-5.8-3-5.7 3c-0.4 0.2-0.9 0.3-1.4 0.2-1.2-0.2-2-1.3-1.8-2.5l1.1-6.4-4.6-4.5c-0.4-0.4-0.6-0.8-0.7-1.3-0.1-1.2 0.7-2.3 1.9-2.4l6.4-1 2.9-5.8q0.3-0.5 0.8-0.8c1.1-0.6 2.5-0.3 3.1 0.8l2.9 5.8 6.4 1c0.8 0.1 1.5 0.7 1.8 1.4 0.2 0.8 0 1.7-0.6 2.3zm-6.2-0.1l-3.2-0.4c-0.7-0.1-1.3-0.6-1.6-1.2l-1.5-2.9-1.4 2.9c-0.3 0.6-0.9 1.1-1.6 1.2l-3.2 0.4 2.3 2.3c0.5 0.5 0.7 1.2 0.6 1.9l-0.5 3.2 2.8-1.5c0.7-0.4 1.4-0.4 2.1 0l2.8 1.5-0.6-3.2c-0.1-0.7 0.2-1.4 0.7-1.9zm109.8 118.4q-0.1 0-0.1 0.1c-0.6 1-1.9 1.3-3 0.7-1-0.6-1.4-1.9-0.7-3 2-3.5 1.8-7.9-0.5-11.3-0.1 1.9-0.5 3.9-1.4 5.6-2.4 4.2-7.7 5.7-11.9 3.4-4.3-2.4-5.8-7.7-3.4-11.9 1.9-3.2 5.1-5.4 8.7-6-4.3-5-10.2-8.2-16.7-9.3-1.1-0.3-1.9-1.3-1.7-2.5 0.2-1.2 1.3-2 2.5-1.8 8.9 1.5 16.9 6.6 21.9 14.1l0.9 1.4c7 4.3 9.4 13.3 5.4 20.5zm-10.2-17.9q-0.5-0.3-1.1-0.3c-2.4 0.4-4.6 1.8-5.9 3.9q0 0 0 0c-1.2 2.1-0.4 4.8 1.7 6 2.1 1.1 4.8 0.4 5.9-1.7 1.4-2.4 1.3-6.9-0.6-7.9z"/></svg>