<svg version="1.2" xmlns="http://www.w3.org/2000/svg" viewBox="0 0 117 117" width="117" height="117"><style>.a{opacity:.1;fill:#fff}</style><path fill-rule="evenodd" class="a" d="m111.4 5.6c-7.4-7.4-19.5-7.4-27 0l-76.3 76.3q0 0.1 0 0.1-0.1 0.1-0.2 0.2-0.1 0.2-0.2 0.5-0.1 0.1-0.1 0.2 0 0 0 0l-7.5 31.4q0 0.3 0 0.5-0.1 0-0.1 0.1 0.1 0.3 0.2 0.7 0 0 0 0.1 0.2 0.4 0.5 0.6 0.3 0.3 0.7 0.5 0.3 0.2 0.8 0.2 0.2 0 0.4-0.1l31.5-7.5q0.1 0 0.1 0 0.1-0.1 0.2-0.1 0.3-0.1 0.5-0.3 0 0 0.1-0.1 0 0 0.1 0l76.3-76.4c7.4-7.4 7.4-19.5 0-26.9zm-3 3c5.3 5.3 5.7 13.5 1.4 19.3l-20.7-20.7c5.8-4.3 14-3.9 19.3 1.4zm-10.5 31.4l-20.9-20.9 3-3 20.9 20.9zm-87.4 66.5c-0.8-0.9-2.1-0.9-3 0l-1.6 1.6 5.4-22.7 9.4-1.1-1.2 10.9c0 0 0 0.1 0 0.2 0 0.1 0 0.1 0 0.2q0 0.1 0.1 0.2 0 0.2 0.1 0.4 0 0.2 0.2 0.4 0.1 0.1 0.2 0.2 0.1 0.2 0.3 0.3 0.1 0.1 0.3 0.2 0.2 0.1 0.4 0.1c0.1 0 0.2 0.1 0.3 0.1q0.1 0 0.2 0 0.1 0 0.2 0l10.9-1.2-1.1 9.4-22.7 5.4 1.6-1.6c0.9-0.9 0.9-2.2 0-3zm26.6-11.6l47.3-47.4c0.9-0.8 0.9-2.2 0-3-0.8-0.8-2.1-0.8-3 0l-47.3 47.4-10.1 1.1 1.1-10.1 47.4-47.4c0.8-0.8 0.8-2.1 0-2.9-0.9-0.9-2.2-0.9-3 0l-47.4 47.3-6.7 0.8 58.6-58.6 20.9 20.9-58.6 58.6zm66.8-60.8l-20.9-21 3-3 20.9 21z"/></svg>