<svg version="1.2" xmlns="http://www.w3.org/2000/svg" viewBox="0 0 126 87" width="126" height="87"><style>.a{opacity:.1;fill:#fff}</style><path fill-rule="evenodd" class="a" d="m4.1 55l16.7-10.8c2.9-1.9 6.5-2 9.4-0.2q0.6 0.3 1.1 0.7l4.8-3.2c-2.7-5.6-3.5-11.9-2.1-18 1.5-7.4 5.8-13.7 12.1-17.8 6.9-4.5 15.2-5.7 22.9-3.5 11.4-3.8 24.4-2.8 35.6 3.8 20.7 12.2 27.6 39 15.4 59.6-12.1 20.7-38.8 27.6-59.5 15.4-12.3-7.3-19.7-19.8-21.1-33l-4.2 2.7c0.9 3.7-0.5 7.7-3.8 9.8l-16.8 10.9c-2.8 1.8-6.4 1.9-9.4 0.2-1.2-0.7-2.2-1.7-2.9-2.9l-0.9-1.3c-2.7-4.1-1.5-9.7 2.7-12.4zm45.9-43.3c-4.7 3.1-7.9 7.8-9 13.3-1.2 5.5-0.2 11.1 2.9 15.8 1.8 2.7 4.1 5 6.9 6.6 6.9 4.1 15.4 3.9 22.1-0.4 9.7-6.3 12.4-19.3 6.2-29.1-1.8-2.7-4.2-5-7-6.6-6.9-4.1-15.3-3.9-22.1 0.4zm29-4.3q2.4 1.9 4.3 4.3 0.8-0.6 1.5-1.2 2.1-1.6 4.1-2.8c-3.3-0.6-6.6-0.7-9.9-0.3zm7.9 10.8l15.8 9.4c1.8-8.2 0.9-13.9-1.7-15.4-2.5-1.5-8 0.8-14.1 6zm13.8 16.5l-11.1-6.6c0.2 4.7-0.8 9.4-2.9 13.7l8.5 5c2.4-4.3 4.2-8.3 5.5-12.1zm18.1 10.7l-11.9-7c-1.4 4-3.3 8-5.5 12.1l14.1 8.3c2-4.3 3.1-8.8 3.3-13.4zm-17 29c3.8-2.4 7.3-5.6 10.1-9.4l-14.1-8.3c-2.5 3.8-5.1 7.4-7.9 10.6zm-7.9 3.7l-9-5.4q-2.3 2.2-4.5 3.9-2.1 1.6-4.2 2.8c6 1 12.1 0.6 17.7-1.3zm16.4-52.5q-0.4 2.8-1.2 5.8l9.1 5.4c-1.1-5.8-3.6-11.4-7.4-16.1q-0.1 2.3-0.5 4.9zm-18.7 27.5l-8.8-5.2c-1.7 1.9-3.7 3.7-6 5.2q-2.9 1.9-6.1 3l13 7.6c2.6-3 5.3-6.5 7.9-10.6zm-27.4 21.8c2.6 1.5 8-0.4 14.2-6l-15.9-9.4c-1.8 8.2-0.9 13.9 1.7 15.4zm-9.3-13.4q0.3-2.2 0.8-4.5c-2.7-0.5-5.3-1.5-7.8-2.9 1.4 4.5 3.6 8.7 6.5 12.4q0.1-2.4 0.5-5zm-47.5 2.1l0.9 1.3q0.2 0.3 0.6 0.6c0.6 0.3 1.3 0.3 1.9-0.1l16.7-10.8c0.8-0.6 1-1.7 0.5-2.5l-0.8-1.3q-0.2-0.4-0.6-0.6c-0.6-0.3-1.3-0.3-1.9 0.1l-16.7 10.8c-0.8 0.6-1.1 1.7-0.6 2.5z"/></svg>